<svg xmlns="http://www.w3.org/2000/svg" width="32" height="32" viewBox="-51.2 -51.2 614.40 614.40">
  <path style="fill:#E6E7E8;" d="M460.014,266.268l-370.739,48.83l0,0c-5.89-45.853,25.329-87.766,69.729-93.613l247.365-32.581 c23.738-3.127,45.533,14.212,48.682,38.726L460.014,266.268z"></path>
  <path style="fill:#ee5d5d;" d="M470.312,341.726H74.297c-25.89,0-50.249,12.661-65.671,34.132l0,0h494.744l0,0 C503.371,357.007,488.57,341.726,470.312,341.726z"></path>
  <path style="fill:#cb4343;" d="M470.312,341.726h-56.756c18.258,0,33.059,15.282,33.059,34.132l0,0h56.756l0,0 C503.372,357.007,488.57,341.726,470.312,341.726z"></path>
  <path style="fill:#BCBEC0;" d="M455.051,227.631c-3.149-24.514-24.944-41.853-48.682-38.726l-247.365,32.58 c-44.4,5.848-75.619,47.76-69.729,93.613l0,0l54.123-7.128l312.737-71.9L455.051,227.631z"></path>
  <path style="fill:#ee5d5d;" d="M485.383,209.212L28.571,314.236l0,0c-9.733-45.128,17.81-89.858,61.52-99.908l335.357-77.101 c23.368-5.373,46.529,9.831,51.733,33.958L485.383,209.212z"></path>
  <path style="fill:#cb4343;" d="M485.383,209.212l-8.202-38.026c-5.204-24.126-28.366-39.33-51.734-33.958l-9.744,2.24 c6.79,6.065,11.823,14.351,13.925,24.095l0,0c4.548,21.085-8.689,41.91-29.711,46.743l-373.28,85.82 c0.012,5.974,0.625,12.037,1.934,18.109l0,0L485.383,209.212z"></path>
  <polygon style="fill:#58595B;" points="238.914,341.726 99.56,341.726 99.56,297.626 197.467,295.314"></polygon>
  <circle style="fill:#e89696;" cx="106.958" cy="306.61" r="41.417"></circle>
  <path style="fill:#cb4343;" d="M140.457,341.726h-66.16c-0.274,0-0.546,0.009-0.82,0.013c7.531,10.333,19.72,17.053,33.485,17.053 C120.734,358.792,132.927,352.065,140.457,341.726z"></path>
  <g>
    <path style="fill:#eab3b3;" d="M116.886,338.108c-22.874,0-41.417-18.543-41.417-41.417c0-8.903,2.819-17.142,7.599-23.895 c-10.597,7.501-17.522,19.847-17.522,33.818c0,22.874,18.543,41.417,41.417,41.417c13.971,0,26.317-6.925,33.818-17.522 C134.028,335.289,125.789,338.108,116.886,338.108z"></path>
    <circle style="fill:#eab3b3;" cx="106.958" cy="306.61" r="8.628"></circle>
  </g>
  <path d="M470.313,333.098H242.776l-23.582-26.408l241.948-31.867c4.715-0.621,8.037-4.938,7.431-9.655l-4.962-38.636 c-0.144-1.119-0.323-2.232-0.534-3.338l24.241-5.573c4.6-1.057,7.496-5.614,6.5-10.228l-8.202-38.026 c-3.058-14.183-11.367-26.204-23.395-33.849c-11.622-7.387-25.368-9.766-38.706-6.698L88.157,205.919 c-48.214,11.085-78.728,60.492-68.02,110.135c0.487,2.257,1.857,4.225,3.806,5.464c1.396,0.887,3.003,1.346,4.628,1.346 c0.647,0,1.294-0.072,1.934-0.219l27.372-6.293c1.238,6.253,3.65,12.085,6.988,17.269c-25.009,2.731-48.16,16.2-63.245,37.203 c-1.888,2.628-2.146,6.092-0.668,8.971c1.476,2.88,4.441,4.69,7.677,4.69h494.743c4.766,0,8.629-3.862,8.629-8.629 C511.999,352.279,493.298,333.098,470.313,333.098z M74.175,306.614c0-18.08,14.709-32.788,32.788-32.788 s32.788,14.709,32.788,32.788c0,18.08-14.709,32.788-32.788,32.788S74.175,324.693,74.175,306.614z M156.988,305.823l36.778-1.7 l25.874,28.974h-70.242c4.815-7.687,7.61-16.762,7.61-26.484C157.009,306.349,156.993,306.088,156.988,305.823z M92.024,222.737 l335.359-77.101c8.805-2.025,17.89-0.445,25.581,4.444c8.1,5.149,13.707,13.29,15.784,22.924l6.406,29.706l-225.565,51.858 c-4.643,1.068-7.544,5.698-6.476,10.343c1.069,4.644,5.698,7.548,10.343,6.475l192.774-44.319c0.095,0.552,0.192,1.104,0.263,1.661 l3.867,30.107l-245.073,32.28l-1.384-1.55c-1.729-1.937-4.236-2.988-6.834-2.873l-43.388,2.006 c-7.223-18.771-25.433-32.133-46.718-32.133c-24.91,0-45.621,18.295-49.417,42.152l-21.907,5.037 C31.88,266.36,55.751,231.077,92.024,222.737z M28.33,367.23c12.891-10.766,29.142-16.875,45.968-16.875h8.385 c7.196,4.011,15.474,6.305,24.279,6.305s17.084-2.295,24.279-6.305h107.671h231.399c10.57,0,19.595,7.047,22.99,16.875H28.33z"></path>
  <circle cx="221.303" cy="270.394" r="8.628"></circle>
  <circle cx="106.958" cy="306.61" r="8.628"></circle>
</svg>
